<?xml version="1.0" encoding="UTF-8" standalone="no"?>
<svg width="150px" height="42px" viewBox="0 0 150 42" version="1.1" xmlns="http://www.w3.org/2000/svg" xmlns:xlink="http://www.w3.org/1999/xlink">
    <!-- Generator: Sketch 39.1 (31720) - http://www.bohemiancoding.com/sketch -->
    <title>g330</title>
    <desc>Created with Sketch.</desc>
    <defs></defs>
    <g id="Symbols" stroke="none" stroke-width="1" fill="none" fill-rule="evenodd">
        <g id="Menu-White" transform="translate(-24.000000, -23.000000)" fill="#02316B">
            <g id="Group-18">
                <g>
                    <g transform="translate(24.000000, 23.000000)">
                        <g>
                            <g id="g330">
                                <path d="M45.7014,3.7071 L45.6924,10.2668 L45.6103,11.5747 L46.4425,10.4542 L54.5279,1.8771 C55.6172,0.7012 57.4349,0.2143 58.9169,0.8116 C60.0785,1.2796 60.7795,2.3835 60.7736,3.7071 L60.7825,28.0533 L37.8238,28.0619 L30.7628,35.018 L60.7824,35.036 L60.7793,40.871 L39.3914,40.871 L23.3908,40.871 C22.2697,40.87 21.1132,40.3026 20.6613,39.171 C20.1396,37.8643 20.8505,36.5207 21.7481,35.6061 L33.3784,23.7657 C34.4782,22.7198 35.7818,22.0766 37.3136,22.0766 L55.0498,22.0766 L55.0612,9.7528 L46.0333,19.0172 C45.0312,19.9858 43.4501,20.4787 42.1817,19.9186 C41.1268,19.4524 40.3449,18.2557 40.3459,17.0454 L40.353,9.4278 L9.2087,40.871 L0.8786,40.871 L39.4607,1.8719 C40.5497,0.6992 42.3649,0.2153 43.8444,0.8114 C45.0059,1.2798 45.701,2.3834 45.7014,3.7071 L45.7014,3.7071 Z" id="path298"></path>
                                <path d="M132.2816,33.6016 L136.6724,33.6016 L136.6724,36.0648 C136.6724,39.5062 134.8005,41.2266 131.0574,41.2266 C129.372,41.2266 128.0773,40.8597 127.1726,40.1261 C126.0551,39.218 125.496,37.768 125.496,35.7767 L125.496,27.2866 C125.496,25.3131 126.0551,23.8717 127.1726,22.9636 C128.0948,22.2121 129.3902,21.8367 131.0574,21.8367 C132.8668,21.8367 134.2065,22.1599 135.0757,22.8063 C136.1401,23.5921 136.6724,24.9285 136.6724,26.8154 L136.6724,28.8589 L132.2816,28.8589 L132.2816,26.2913 C132.2816,25.8544 132.193,25.5008 132.0111,25.2298 C131.8339,24.9589 131.5184,24.824 131.0708,24.824 C130.6587,24.824 130.3613,24.9589 130.1842,25.2298 C130.0023,25.5008 129.913,25.8544 129.913,26.2913 L129.913,36.772 C129.913,37.2261 129.9976,37.5843 130.1707,37.8466 C130.3392,38.1084 130.6406,38.2392 131.0708,38.2392 C131.5184,38.2392 131.8339,38.1044 132.0111,37.8334 C132.193,37.5625 132.2816,37.2089 132.2816,36.772 L132.2816,33.6016 Z" id="path300"></path>
                                <polygon id="path302" points="124.2886 40.8597 120.6696 40.8597 120.6696 25.5834 117.7695 40.8597 112.1544 40.8597 112.1544 22.2035 115.7734 22.2035 115.7824 35.4621 118.2221 22.2035 124.2889 22.2035"></polygon>
                                <path d="M104.1876,24.8762 L104.1876,29.802 L104.5474,29.802 L104.9064,29.802 C105.4742,29.802 105.8642,29.6798 106.077,29.4352 C106.379,29.0863 106.5293,28.3877 106.5293,27.3395 C106.5293,26.3613 106.4139,25.7235 106.1837,25.4268 C105.8823,25.0593 105.2165,24.8762 104.1876,24.8762 L104.1876,24.8762 Z M104.1876,32.449 L104.1876,38.187 C104.2943,38.2049 104.4541,38.2135 104.6668,38.2135 C105.5004,38.2135 106.0414,37.9253 106.2897,37.3483 C106.4495,36.9643 106.5293,36.2221 106.5293,35.1217 C106.5293,33.864 106.379,33.0861 106.077,32.7893 C105.8467,32.562 105.2165,32.449 104.1876,32.449 L104.1876,32.449 Z M99.7706,40.8597 L99.7706,22.2035 L104.2413,22.2035 C107.1683,22.2035 109.0308,22.5703 109.8288,23.3039 C110.5738,23.9853 110.947,25.1294 110.947,26.7367 C110.947,27.9244 110.743,28.8503 110.3349,29.5139 C109.8382,30.3354 108.9952,30.798 107.8066,30.9031 L107.8066,31.0862 C109.1019,31.0862 109.9798,31.523 110.4409,32.3961 C110.7779,33.0253 110.947,34.0735 110.947,35.5407 C110.947,37.916 110.4147,39.4447 109.3503,40.1261 C108.5697,40.6152 106.8663,40.8597 104.2413,40.8597 L99.7706,40.8597 Z" id="path304"></path>
                                <path d="M92.1394,24.8762 L92.1394,30.9811 L92.8314,30.9811 C93.5589,30.9811 94.0287,30.7544 94.2415,30.3004 C94.4012,29.9507 94.4811,29.1649 94.4811,27.9422 C94.4811,26.9984 94.4455,26.3613 94.3751,26.0289 C94.2153,25.2602 93.7005,24.8762 92.8314,24.8762 L92.1394,24.8762 Z M92.1394,40.8597 L87.7224,40.8597 L87.7224,22.2035 L93.124,22.2035 C95.0402,22.2035 96.4416,22.4659 97.3282,22.9893 C98.3752,23.6185 98.8988,24.6925 98.8988,26.2126 L98.8988,29.619 C98.8988,30.9467 98.3752,31.9685 97.3282,32.6843 C96.3886,33.3306 95.1999,33.6538 93.7629,33.6538 L92.1394,33.6538 L92.1394,40.8597 Z" id="path306"></path>
                                <polygon id="path308" points="86.6049 40.8597 77.4514 40.8597 77.4514 22.2035 86.6049 22.2035 86.6049 25.0335 81.8684 25.0335 81.8684 29.1213 85.1028 29.1213 85.1028 31.9507 81.8684 31.9507 81.8684 38.0297 86.6049 38.0297"></polygon>
                                <path d="M71.5706,33.6016 L75.9614,33.6016 L75.9614,36.0648 C75.9614,39.5062 74.0895,41.2266 70.3464,41.2266 C68.6611,41.2266 67.3664,40.8597 66.4616,40.1261 C65.3441,39.218 64.785,37.768 64.785,35.7767 L64.785,27.2866 C64.785,25.3131 65.3441,23.8717 66.4616,22.9636 C67.3838,22.2121 68.6792,21.8367 70.3464,21.8367 C72.1559,21.8367 73.4955,22.1599 74.3647,22.8063 C75.4292,23.5921 75.9614,24.9285 75.9614,26.8154 L75.9614,28.8589 L71.5706,28.8589 L71.5706,26.2913 C71.5706,25.8544 71.482,25.5008 71.3001,25.2298 C71.1229,24.9589 70.8075,24.824 70.3598,24.824 C69.9477,24.824 69.6504,24.9589 69.4732,25.2298 C69.2913,25.5008 69.202,25.8544 69.202,26.2913 L69.202,36.772 C69.202,37.2261 69.2866,37.5843 69.4598,37.8466 C69.6282,38.1084 69.9296,38.2392 70.3598,38.2392 C70.8075,38.2392 71.1229,38.1044 71.3001,37.8334 C71.482,37.5625 71.5706,37.2089 71.5706,36.772 L71.5706,33.6016 Z" id="path310"></path>
                                <path d="M111.6061,15.9073 C112.2444,15.9073 112.6578,15.6747 112.8296,14.8214 C112.9525,14.2141 113.0162,12.8215 113.0162,10.655 L113.0162,4.7167 C113.027,2.2317 114.1424,0.9337 116.4714,0.9376 L123.8194,0.9376 L123.8194,19.5939 L119.4024,19.5939 L119.4024,3.7677 L117.0607,3.7677 L117.0607,10.655 C117.0607,12.9577 116.9949,14.5181 116.8748,15.3191 C116.6607,16.7506 116.1875,17.7896 115.464,18.4373 C114.6297,19.1841 113.3444,19.5641 111.6061,19.5641 L111.6061,15.9073 Z" id="path314"></path>
                                <path d="M104.4742,12.1784 L106.0709,12.1784 L105.2991,3.8721 L104.4742,12.1784 Z M102.7714,0.9376 L108.8382,0.9376 L111.2866,19.5939 L106.8958,19.5939 L106.3904,15.0085 L103.9956,15.0085 L103.2768,19.5939 L99.5518,19.5939 L102.7714,0.9376 Z" id="path316"></path>
                                <polygon id="path318" points="68.2973 19.5939 64.7589 19.5939 64.7589 0.9376 71.2645 0.9376 73.127 14.2008 75.0298 0.9376 81.3892 0.9376 81.3892 19.5939 77.3977 19.5939 77.3977 3.8721 74.7902 19.5939 70.9055 19.5939 68.351 3.8721"></polygon>
                                <polygon id="path320" points="91.634 19.5939 82.4805 19.5939 82.4805 0.9376 90.5843 0.9376 91.634 0.9376 101.1747 0.9376 101.1747 3.7677 98.088 3.7677 98.088 19.5939 93.671 19.5939 93.671 3.7677 91.634 3.7677 90.5843 3.7677 86.8975 3.7677 86.8975 7.8554 90.1319 7.8554 90.1319 10.6848 86.8975 10.6848 86.8975 16.7639 91.634 16.7639"></polygon>
                                <path d="M124.459,19.5641 L124.459,15.9073 C125.0973,15.9073 125.5108,15.6747 125.6826,14.8214 C125.8054,14.2141 125.8692,12.8215 125.8692,10.655 L125.8692,4.7167 C125.8799,2.2317 126.9954,0.9337 129.3244,0.9376 L136.6724,0.9376 L136.6724,19.5939 L132.2554,19.5939 L132.2554,3.7677 L129.9137,3.7677 L129.9137,10.655 C129.9137,12.9577 129.8479,14.5181 129.7278,15.3191 C129.5137,16.7506 129.0405,17.7896 128.317,18.4373 C127.4827,19.1841 126.1974,19.5641 124.459,19.5641 L124.459,19.5641 Z" id="path322"></path>
                                <path d="M145.1127,1.5515 C147.2419,1.5515 148.9612,3.2708 148.9612,5.3999 C148.9612,7.5294 147.2419,9.2484 145.1127,9.2484 C142.9831,9.2484 141.2641,7.5294 141.2641,5.3999 C141.2641,3.2708 142.9831,1.5515 145.1127,1.5515 L145.1127,1.5515 Z M145.1127,0.946 C147.5741,0.946 149.5668,2.9386 149.5668,5.3999 C149.5668,7.8615 147.5741,9.8542 145.1127,9.8542 C142.6509,9.8542 140.6582,7.8615 140.6582,5.3999 C140.6582,2.9386 142.6509,0.946 145.1127,0.946 L145.1127,0.946 Z M144.1684,3.5126 L145.106,3.5126 C145.7116,3.5126 146.2196,3.6105 146.2196,4.3138 C146.2196,4.6456 145.9657,5.1536 145.106,5.1536 L144.1684,5.1536 L144.1684,3.5126 Z M143.1328,7.9864 L144.1684,7.9864 L144.1684,5.9154 L144.9302,5.9154 C146.6688,5.9154 145.3989,7.3611 146.2196,7.9864 L147.2551,7.9864 C147.0793,7.8106 147.0793,7.4589 147.0793,6.7946 C147.0793,6.3454 147.0793,5.6616 146.3171,5.6616 L146.3171,5.5053 C147.0793,5.2514 147.2551,4.6456 147.2551,4.3138 C147.2551,3.1025 146.1217,2.8288 145.4577,2.8288 L143.1328,2.8288 L143.1328,7.9864 Z" id="path328"></path>
                            </g>
                        </g>
                    </g>
                </g>
            </g>
        </g>
    </g>
</svg>